# xmcd CD database file
#
# Track frame offsets:
#	150
#	16572
#	34187
#	52112
#	68127
#	84885
#	101805
#	116655
#	132772
#	150345
#	172115
#	187527
#	203612
#
# Disc length: 2920 seconds
#
# Revision: 3
# Processed by: cddbd v1.5.1PL0 Copyright (c) Steve Scherf et al.
# Submitted via: CDex 1.51
#
DISCID=990b660d
DTITLE=オルゴールメロディー - Ballade? My Favorite Orgel Best Collection
DYEAR=1900
DGENRE=Other
TTITLE0=Diamonds
TTITLE1=シングルアゲイン
TTITLE2=浪漫飛行
TTITLE3=スタンドバイミー
TTITLE4=もうひとつの土曜日
TTITLE5=B-Blue
TTITLE6=夜明けのブレス
TTITLE7=わがままジュリエット
TTITLE8=Missing
TTITLE9=駅
TTITLE10=オリビアを聴きながら
TTITLE11=Good Bye Day
TTITLE12=M
EXTD=
EXTT0=
EXTT1=
EXTT2=
EXTT3=
EXTT4=
EXTT5=
EXTT6=
EXTT7=
EXTT8=
EXTT9=
EXTT10=
EXTT11=
EXTT12=
PLAYORDER=
